<svg xmlns="http://www.w3.org/2000/svg" version="1.1" xmlns:xlink="http://www.w3.org/1999/xlink" width="512" height="512" x="0" y="0" viewBox="0 0 500 500" style="enable-background:new 0 0 512 512" xml:space="preserve"><g><path fill-rule="evenodd" d="m292.996 137.5-13.123 1.99 4.842-12.362zm-25.969-1.543-3.677 9.381c-1.868 4.756 2.152 9.719 7.157 8.972l35.818-5.417c5.047-.765 7.363-6.714 4.193-10.691l-22.605-28.315c-3.177-3.98-9.497-3.014-11.345 1.719l-4.603 11.734c-46.055-7.956-92.763 9.543-122.163 46.121-36.084 44.886-37.819 108.865-4.225 155.571a6.63 6.63 0 0 0 10.765-7.737c-30.135-41.89-28.576-99.271 3.789-139.527 25.958-32.296 66.347-47.909 106.896-41.811zm-60.02 226.542 13.117-1.99-4.837 12.361zm138.176-189.042c2.964-2.139 7.109-1.458 9.238 1.511 33.605 46.701 31.865 110.685-4.214 155.571-29.453 36.646-76.224 54.065-122.174 46.12l-4.593 11.729c-1.861 4.744-8.172 5.705-11.345 1.724l-22.611-28.31c-3.184-3.999-.825-9.936 4.188-10.696l35.818-5.412c5.055-.767 9.027 4.24 7.168 8.966l-3.677 9.382c40.334 6.043 80.746-9.269 106.896-41.81 32.359-40.267 33.924-97.637 3.794-139.527a6.617 6.617 0 0 1 1.512-9.248zm-95.184 22.414c15.049 0 28.672 6.178 38.49 16.118l-42.986 45.078-17.406-22.015a6.632 6.632 0 0 0-9.312-1.091c-2.874 2.262-3.358 6.434-1.085 9.307l22.132 28.006c2.5 3.162 7.224 3.376 10.004.463l46.828-49.111a53.73 53.73 0 0 1 7.466 27.373c0 29.848-24.281 54.119-54.129 54.119-29.837 0-54.119-24.271-54.119-54.119-.002-29.847 24.28-54.128 54.117-54.128zm0 121.503c-37.143 0-67.374-30.22-67.374-67.374s30.231-67.385 67.374-67.385c18.593 0 35.44 7.567 47.643 19.774l9.365-9.823c2.528-2.65 6.726-2.746 9.366-.218a6.63 6.63 0 0 1 .234 9.366l-10.504 11.015c7.12 10.685 11.281 23.494 11.281 37.271 0 37.154-30.231 67.374-67.385 67.374zm0 137.707c166.89-55.454 164.756-212.648 160.914-353.048-56.434-9.07-114.415-28.811-160.914-56.364-46.489 27.561-104.47 47.289-160.898 56.364-3.847 140.4-5.992 297.594 160.898 353.048zM424.003 96.148a6.612 6.612 0 0 0-5.646-6.37c-57.804-8.547-117.717-28.889-164.91-57.503a6.639 6.639 0 0 0-6.891 0c-46.958 28.567-107.267 48.98-164.905 57.503a6.631 6.631 0 0 0-5.657 6.37c-1.964 71.142-4.177 151.777 17.47 220.359 24.058 76.245 74.601 125.92 154.496 151.852a6.471 6.471 0 0 0 4.087 0c79.895-25.931 130.427-75.607 154.496-151.852 21.648-68.583 19.424-149.218 17.46-220.359z" clip-rule="evenodd" fill="#4755a5" opacity="1" data-original="#000000"></path></g></svg>